<svg id="Layer_1" data-name="Layer 1" xmlns="http://www.w3.org/2000/svg" width="8.53in" height="6.25in" viewBox="0 0 614 450.33"><defs><style>.cls-1{fill:none;stroke:#000;stroke-miterlimit:10;stroke-width:2px;}</style></defs><title>MarsPlayerBoard_v3p1_top</title><rect class="cls-1" x="1" y="1" width="612" height="448.33"/><polygon class="cls-1" points="140.41 310.88 124.12 294.59 112.6 306.11 101.08 294.59 89.56 306.11 78.04 294.59 66.52 306.11 55 294.59 43.48 306.11 31.96 294.59 15.67 310.88 31.96 327.17 43.48 315.65 55 327.17 66.52 315.65 78.04 327.17 89.56 315.65 101.08 327.17 112.6 315.65 124.12 327.17 140.41 310.88"/><polygon class="cls-1" points="151.93 342.56 135.64 326.27 124.12 337.79 112.6 326.27 101.08 337.79 89.56 326.27 78.04 337.79 66.52 326.27 55 337.79 43.48 326.27 27.19 342.56 43.48 358.85 55 347.33 66.52 358.85 78.04 347.33 89.56 358.85 101.08 347.33 112.6 358.85 124.12 347.33 135.64 358.85 151.93 342.56"/><polygon class="cls-1" points="15.4 374.5 15.4 431.84 195.4 431.84 195.4 383.15 158.68 346.43 135.64 369.47 124.12 357.95 112.6 369.47 101.08 357.95 89.56 369.47 78.04 357.95 66.52 369.47 55 357.95 43.48 369.47 31.96 357.95 15.4 374.5"/><rect class="cls-1" x="168.76" y="329.6" width="23.04" height="23.04" transform="translate(-188.41 227.39) rotate(-45)"/><rect class="cls-1" x="145.72" y="308.72" width="23.04" height="23.04" transform="translate(-180.39 204.98) rotate(-45)"/><polygon class="cls-1" points="342.01 310.88 325.72 294.59 314.2 306.11 302.68 294.59 291.16 306.11 279.64 294.59 268.12 306.11 256.6 294.59 245.08 306.11 233.56 294.59 217.27 310.88 233.56 327.17 245.08 315.65 256.6 327.17 268.12 315.65 279.64 327.17 291.16 315.65 302.68 327.17 314.2 315.65 325.72 327.17 342.01 310.88"/><polygon class="cls-1" points="353.53 342.56 337.24 326.27 325.72 337.79 314.2 326.27 302.68 337.79 291.16 326.27 279.64 337.79 268.12 326.27 256.6 337.79 245.08 326.27 228.79 342.56 245.08 358.85 256.6 347.33 268.12 358.85 279.64 347.33 291.16 358.85 302.68 347.33 314.2 358.85 325.72 347.33 337.24 358.85 353.53 342.56"/><rect class="cls-1" x="370.36" y="329.6" width="23.04" height="23.04" transform="translate(-129.36 369.94) rotate(-45)"/><rect class="cls-1" x="347.32" y="308.72" width="23.04" height="23.04" transform="translate(-121.34 347.53) rotate(-45)"/><polygon class="cls-1" points="543.61 310.88 527.32 294.59 515.8 306.11 504.28 294.59 492.76 306.11 481.24 294.59 469.72 306.11 458.2 294.59 446.68 306.11 435.16 294.59 418.87 310.88 435.16 327.17 446.68 315.65 458.2 327.17 469.72 315.65 481.24 327.17 492.76 315.65 504.28 327.17 515.8 315.65 527.32 327.17 543.61 310.88"/><polygon class="cls-1" points="555.13 342.56 538.84 326.27 527.32 337.79 515.8 326.27 504.28 337.79 492.76 326.27 481.24 337.79 469.72 326.27 458.2 337.79 446.68 326.27 430.39 342.56 446.68 358.85 458.2 347.33 469.72 358.85 481.24 347.33 492.76 358.85 504.28 347.33 515.8 358.85 527.32 347.33 538.84 358.85 555.13 342.56"/><rect class="cls-1" x="571.96" y="329.6" width="23.04" height="23.04" transform="translate(-70.31 512.49) rotate(-45)"/><rect class="cls-1" x="548.92" y="308.72" width="23.04" height="23.04" transform="translate(-62.29 490.09) rotate(-45)"/><polygon class="cls-1" points="401.41 257.6 385.12 241.31 373.6 252.83 362.08 241.31 350.56 252.83 339.04 241.31 327.52 252.83 316 241.31 304.48 252.83 292.96 241.31 276.67 257.6 292.96 273.89 304.48 262.37 316 273.89 327.52 262.37 339.04 273.89 350.56 262.37 362.08 273.89 373.6 262.37 385.12 273.89 401.41 257.6"/><polygon class="cls-1" points="315.64 210.53 327.16 199.01 338.68 210.53 350.2 199.01 361.72 210.53 373.24 199.01 384.76 210.53 401.05 194.24 433 161.12 433 79.04 289 79.04 289 184.16 315.64 210.53"/><polygon class="cls-1" points="412.57 225.92 396.28 209.63 384.76 221.15 373.24 209.63 361.72 221.15 350.2 209.63 338.68 221.15 327.16 209.63 315.64 221.15 304.12 209.63 287.83 225.92 304.12 242.21 315.64 230.69 327.16 242.21 338.68 230.69 350.2 242.21 361.72 230.69 373.24 242.21 384.76 230.69 396.28 242.21 412.57 225.92"/><rect class="cls-1" x="406" y="235.64" width="23.04" height="23.04" transform="translate(-52.48 367.62) rotate(-45)"/><rect class="cls-1" x="406.36" y="192.8" width="23.04" height="23.04" transform="translate(-22.08 355.33) rotate(-45)"/><polygon class="cls-1" points="567.01 257.6 550.72 241.31 539.2 252.83 527.68 241.31 516.16 252.83 504.64 241.31 493.12 252.83 481.6 241.31 470.08 252.83 458.56 241.31 442.27 257.6 458.56 273.89 470.08 262.37 481.6 273.89 493.12 262.37 504.64 273.89 516.16 262.37 527.68 273.89 539.2 262.37 550.72 273.89 567.01 257.6"/><polygon class="cls-1" points="481.24 210.53 492.76 199.01 504.28 210.53 515.8 199.01 527.32 210.53 538.84 199.01 550.36 210.53 566.65 194.24 598.6 161.12 598.6 79.04 454.6 79.04 454.6 184.16 481.24 210.53"/><polygon class="cls-1" points="578.17 225.92 561.88 209.63 550.36 221.15 538.84 209.63 527.32 221.15 515.8 209.63 504.28 221.15 492.76 209.63 481.24 221.15 469.72 209.63 453.43 225.92 469.72 242.21 481.24 230.69 492.76 242.21 504.28 230.69 515.8 242.21 527.32 230.69 538.84 242.21 550.36 230.69 561.88 242.21 578.17 225.92"/><rect class="cls-1" x="571.96" y="236" width="23.04" height="23.04" transform="translate(-4.13 485.08) rotate(-45)"/><rect class="cls-1" x="571.96" y="192.8" width="23.04" height="23.04" transform="translate(26.42 472.43) rotate(-45)"/><polygon class="cls-1" points="240.76 79.76 240.77 15.2 15.4 15.2 15.4 198.56 135.19 198.56 147.16 210.53 158.68 199.01 170.2 210.53 181.72 199.01 193.24 210.53 204.76 199.01 216.28 210.53 241.48 185.87 223.75 167.6 241.48 149.33 223.75 132.32 242.2 114.77 223.75 97.04 240.76 79.76"/><polygon class="cls-1" points="232.57 257.6 216.28 241.31 204.76 252.83 193.24 241.31 181.72 252.83 170.2 241.31 158.68 252.83 147.16 241.31 135.64 252.83 124.12 241.31 112.6 252.83 101.08 241.31 89.56 252.83 78.04 241.31 66.52 252.83 55 241.31 43.48 252.83 31.96 241.31 15.67 257.6 31.96 273.89 43.48 262.37 55 273.89 66.52 262.37 78.04 273.89 89.56 262.37 101.08 273.89 112.6 262.37 124.12 273.89 135.64 262.37 147.16 273.89 158.68 262.37 170.2 273.89 181.72 262.37 193.24 273.89 204.76 262.37 216.28 273.89 232.57 257.6"/><polygon class="cls-1" points="244.09 225.92 227.8 209.63 216.28 221.15 204.76 209.63 193.24 221.15 181.72 209.63 170.2 221.15 158.68 209.63 147.16 221.15 135.64 209.63 119.35 225.92 135.64 242.21 147.16 230.69 158.68 242.21 170.2 230.69 181.72 242.21 193.24 230.69 204.76 242.21 216.28 230.69 227.8 242.21 244.09 225.92"/><rect class="cls-1" x="237.52" y="235.64" width="23.04" height="23.04" transform="translate(-101.83 248.49) rotate(-45)"/><rect class="cls-1" x="237.52" y="192.8" width="23.04" height="23.04" transform="translate(-71.53 235.94) rotate(-45)"/><rect class="cls-1" x="237.52" y="156.08" width="23.04" height="23.04" transform="translate(-45.57 225.19) rotate(-45)"/><rect class="cls-1" x="237.52" y="120.8" width="23.04" height="23.04" transform="translate(-20.62 214.85) rotate(-45)"/><rect class="cls-1" x="237.52" y="85.52" width="23.04" height="23.04" transform="translate(4.32 204.52) rotate(-45)"/><polygon class="cls-1" points="561.88 346.43 538.84 369.47 527.32 357.95 515.8 369.47 504.28 357.95 492.76 369.47 481.24 357.95 469.72 369.47 458.2 357.95 446.68 369.47 435.16 357.95 418.6 374.5 418.6 399.21 397 399.21 397 383.15 360.28 346.43 337.24 369.47 325.72 357.95 314.2 369.47 302.68 357.95 291.16 369.47 279.64 357.95 268.12 369.47 256.6 357.95 245.08 369.47 233.56 357.95 217 374.5 217 431.84 397 431.84 397 413.67 418.6 413.67 418.6 431.84 598.6 431.84 598.6 383.15 561.88 346.43"/><polygon class="cls-1" points="95.05 226.56 95.05 220.8 100.81 220.8 100.81 217.92 95.05 217.92 95.05 212.16 92.17 212.16 92.17 217.92 86.41 217.92 86.41 220.8 92.17 220.8 92.17 226.56 95.05 226.56"/><rect class="cls-1" x="33.31" y="206.05" width="37.8" height="27"/><rect class="cls-1" x="287.83" y="15.2" width="310.77" height="49.44"/></svg>